<svg width="20" height="20" viewBox="0 0 20 20" fill="none" xmlns="http://www.w3.org/2000/svg">
<g clip-path="url(#clip0_2_94)">
<g clip-path="url(#clip1_2_94)">
<path d="M6.651 14.5241L9.98825 11.1868L13.3255 14.5241L14.5006 13.349L11.1633 10.0118L14.5006 6.6745L13.3255 5.49941L9.98825 8.83666L6.651 5.49941L5.47591 6.6745L8.81316 10.0118L5.47591 13.349L6.651 14.5241ZM9.99154 20C8.61058 20 7.31304 19.7409 6.09894 19.2226C4.885 18.7041 3.82421 17.9911 2.91657 17.0834C2.00893 16.1758 1.29589 15.1161 0.777438 13.9043C0.259146 12.6924 0 11.396 0 10.015C0 8.61841 0.259146 7.31304 0.777438 6.09894C1.29589 4.885 2.00768 3.82765 2.91281 2.92691C3.81794 2.02632 4.87701 1.31336 6.09001 0.788015C7.30317 0.262672 8.60086 0 9.98308 0C11.381 0 12.6879 0.262045 13.9039 0.786134C15.1197 1.31038 16.1774 2.02178 17.0769 2.92033C17.9763 3.81888 18.6884 4.87544 19.2129 6.09001C19.7376 7.30474 20 8.61199 20 10.0118C20 11.3949 19.7373 12.6934 19.212 13.9072C18.6866 15.121 17.9737 16.1807 17.0731 17.0865C16.1723 17.9921 15.1161 18.7041 13.9043 19.2226C12.6924 19.7409 11.3882 20 9.99154 20Z" fill="white"/>
</g>
</g>
<defs>
<clipPath id="clip0_2_94">
<rect width="20" height="20" fill="white"/>
</clipPath>
<clipPath id="clip1_2_94">
<rect width="20" height="20" fill="white"/>
</clipPath>
</defs>
</svg>
